<?xml version="1.0" encoding="UTF-8" standalone="no"?>
<svg viewBox="0 0 1200 900" xmlns="http://www.w3.org/2000/svg">
  <!-- Blueprint Background -->
  <rect width="1200" height="900" fill="#f0f8ff" />
  
  <!-- Blueprint Grid -->
  <g stroke="#ccc" stroke-width="0.5">
    <!-- Vertical grid lines -->
    <line x1="50" y1="50" x2="50" y2="850" />
    <line x1="150" y1="50" x2="150" y2="850" />
    <line x1="250" y1="50" x2="250" y2="850" />
    <line x1="350" y1="50" x2="350" y2="850" />
    <line x1="450" y1="50" x2="450" y2="850" />
    <line x1="550" y1="50" x2="550" y2="850" />
    <line x1="650" y1="50" x2="650" y2="850" />
    <line x1="750" y1="50" x2="750" y2="850" />
    <line x1="850" y1="50" x2="850" y2="850" />
    <line x1="950" y1="50" x2="950" y2="850" />
    <line x1="1050" y1="50" x2="1050" y2="850" />
    <line x1="1150" y1="50" x2="1150" y2="850" />
    
    <!-- Horizontal grid lines -->
    <line x1="50" y1="50" x2="1150" y2="50" />
    <line x1="50" y1="150" x2="1150" y2="150" />
    <line x1="50" y1="250" x2="1150" y2="250" />
    <line x1="50" y1="350" x2="1150" y2="350" />
    <line x1="50" y1="450" x2="1150" y2="450" />
    <line x1="50" y1="550" x2="1150" y2="550" />
    <line x1="50" y1="650" x2="1150" y2="650" />
    <line x1="50" y1="750" x2="1150" y2="750" />
    <line x1="50" y1="850" x2="1150" y2="850" />
  </g>
  
  <!-- Building Outline with Measurements -->
  <rect x="150" y="150" width="900" height="600" fill="none" stroke="#000080" stroke-width="3" />
  
  <!-- Exterior Dimension Lines -->
  <!-- Width dimension line (top) -->
  <line x1="150" y1="130" x2="1050" y2="130" stroke="#000080" stroke-width="0.5" />
  <line x1="150" y1="125" x2="150" y2="135" stroke="#000080" stroke-width="0.5" />
  <line x1="1050" y1="125" x2="1050" y2="135" stroke="#000080" stroke-width="0.5" />
  <text x="600" y="125" text-anchor="middle" font-family="Arial" font-size="10" fill="#000080">180.0 m (590'-6")</text>
  
  <!-- Height dimension line (left) -->
  <line x1="130" y1="150" x2="130" y2="750" stroke="#000080" stroke-width="0.5" />
  <line x1="125" y1="150" x2="135" y2="150" stroke="#000080" stroke-width="0.5" />
  <line x1="125" y1="750" x2="135" y2="750" stroke="#000080" stroke-width="0.5" />
  <text x="110" y="450" text-anchor="middle" font-family="Arial" font-size="10" fill="#000080" transform="rotate(-90 110,450)">120.0 m (393'-8")</text>
  
  <!-- Main Entrance -->
  <rect x="550" y="150" width="100" height="20" fill="none" stroke="#000080" stroke-width="2" />
  <path d="M550,170 Q600,200 650,170" fill="none" stroke="#000080" stroke-width="1" />
  <text x="600" y="140" text-anchor="middle" font-family="Arial" font-size="14" fill="#000080">MAIN ENTRANCE</text>
  
  <!-- Main Entrance Measurements -->
  <line x1="550" y1="145" x2="650" y2="145" stroke="#000080" stroke-width="0.5" />
  <line x1="550" y1="143" x2="550" y2="147" stroke="#000080" stroke-width="0.5" />
  <line x1="650" y1="143" x2="650" y2="147" stroke="#000080" stroke-width="0.5" />
  <text x="600" y="112" text-anchor="middle" font-family="Arial" font-size="8" fill="#000080">20.0 m (65'-7")</text>
  
  <!-- Side Entrances -->
  <rect x="150" y="400" width="20" height="100" fill="none" stroke="#000080" stroke-width="2" />
  <text x="120" y="450" text-anchor="middle" font-family="Arial" font-size="12" fill="#000080" transform="rotate(-90 120,450)">WEST ENTRANCE</text>
  
  <!-- West Entrance Measurements -->
  <line x1="125" y1="400" x2="125" y2="500" stroke="#000080" stroke-width="0.5" />
  <line x1="123" y1="400" x2="127" y2="400" stroke="#000080" stroke-width="0.5" />
  <line x1="123" y1="500" x2="127" y2="500" stroke="#000080" stroke-width="0.5" />
  <text x="105" y="450" text-anchor="middle" font-family="Arial" font-size="8" fill="#000080" transform="rotate(-90 105,450)">20.0 m (65'-7")</text>
  
  <rect x="1030" y="400" width="20" height="100" fill="none" stroke="#000080" stroke-width="2" />
  <text x="1080" y="450" text-anchor="middle" font-family="Arial" font-size="12" fill="#000080" transform="rotate(90 1080,450)">EAST ENTRANCE</text>
  
  <!-- East Entrance Measurements -->
  <line x1="1075" y1="400" x2="1075" y2="500" stroke="#000080" stroke-width="0.5" />
  <line x1="1073" y1="400" x2="1077" y2="400" stroke="#000080" stroke-width="0.5" />
  <line x1="1073" y1="500" x2="1077" y2="500" stroke="#000080" stroke-width="0.5" />
  <text x="1095" y="450" text-anchor="middle" font-family="Arial" font-size="8" fill="#000080" transform="rotate(90 1095,450)">20.0 m (65'-7")</text>
  
  <!-- Loading Bay -->
  <rect x="400" y="750" width="200" height="20" fill="none" stroke="#000080" stroke-width="2" />
  <text x="500" y="780" text-anchor="middle" font-family="Arial" font-size="12" fill="#000080">LOADING BAY</text>
  
  <!-- Loading Bay Measurements -->
  <line x1="400" y1="785" x2="600" y2="785" stroke="#000080" stroke-width="0.5" />
  <line x1="400" y1="783" x2="400" y2="787" stroke="#000080" stroke-width="0.5" />
  <line x1="600" y1="783" x2="600" y2="787" stroke="#000080" stroke-width="0.5" />
  <text x="500" y="795" text-anchor="middle" font-family="Arial" font-size="8" fill="#000080">40.0 m (131'-3")</text>
  
  <!-- Main Atrium -->
  <circle cx="600" cy="300" r="80" fill="none" stroke="#000080" stroke-width="2" />
  <text x="600" y="300" text-anchor="middle" font-family="Arial" font-size="14" fill="#000080">CENTRAL ATRIUM</text>
  
  <!-- Atrium Diameter Measurement -->
  <line x1="520" y1="210" x2="680" y2="210" stroke="#000080" stroke-width="0.5" />
  <line x1="520" y1="208" x2="520" y2="212" stroke="#000080" stroke-width="0.5" />
  <line x1="680" y1="208" x2="680" y2="212" stroke="#000080" stroke-width="0.5" />
  <text x="600" y="205" text-anchor="middle" font-family="Arial" font-size="8" fill="#000080">32.0 m (105'-0") DIAMETER</text>
  
  <!-- Research Wings -->
  <!-- East Wing -->
  <rect x="700" y="200" width="300" height="200" fill="none" stroke="#000080" stroke-width="2" />
  <text x="850" y="240" text-anchor="middle" font-family="Arial" font-size="16" fill="#000080">EAST RESEARCH WING</text>
  
  <!-- East Wing Measurements -->
  <line x1="700" y1="190" x2="1000" y2="190" stroke="#000080" stroke-width="0.5" />
  <line x1="700" y1="188" x2="700" y2="192" stroke="#000080" stroke-width="0.5" />
  <line x1="1000" y1="188" x2="1000" y2="192" stroke="#000080" stroke-width="0.5" />
  <text x="850" y="185" text-anchor="middle" font-family="Arial" font-size="8" fill="#000080">60.0 m (196'-10")</text>
  
  <line x1="1010" y1="200" x2="1010" y2="400" stroke="#000080" stroke-width="0.5" />
  <line x1="1008" y1="200" x2="1012" y2="200" stroke="#000080" stroke-width="0.5" />
  <line x1="1008" y1="400" x2="1012" y2="400" stroke="#000080" stroke-width="0.5" />
  <text x="1022" y="300" text-anchor="middle" font-family="Arial" font-size="8" fill="#000080" transform="rotate(90 1022,300)">40.0 m (131'-3")</text>
  
  <!-- Internal divisions for labs in East Wing -->
  <line x1="750" y1="200" x2="750" y2="400" stroke="#000080" stroke-width="1" />
  <line x1="800" y1="200" x2="800" y2="400" stroke="#000080" stroke-width="1" />
  <line x1="850" y1="200" x2="850" y2="400" stroke="#000080" stroke-width="1" />
  <line x1="900" y1="200" x2="900" y2="400" stroke="#000080" stroke-width="1" />
  <line x1="950" y1="200" x2="950" y2="400" stroke="#000080" stroke-width="1" />
  
  <!-- Lab Module Width -->
  <line x1="750" y1="195" x2="800" y2="195" stroke="#000080" stroke-width="0.5" />
  <line x1="750" y1="193" x2="750" y2="197" stroke="#000080" stroke-width="0.5" />
  <line x1="800" y1="193" x2="800" y2="197" stroke="#000080" stroke-width="0.5" />
  <text x="775" y="192" text-anchor="middle" font-family="Arial" font-size="6" fill="#000080">10.0 m</text>
  
  <line x1="700" y1="300" x2="1000" y2="300" stroke="#000080" stroke-width="1" />
  <text x="850" y="320" text-anchor="middle" font-family="Arial" font-size="12" fill="#000080">LABORATORY SPACES</text>
  
  <!-- West Wing -->
  <rect x="200" y="200" width="300" height="200" fill="none" stroke="#000080" stroke-width="2" />
  <text x="350" y="240" text-anchor="middle" font-family="Arial" font-size="16" fill="#000080">WEST RESEARCH WING</text>
  
  <!-- West Wing Measurements -->
  <line x1="200" y1="190" x2="500" y2="190" stroke="#000080" stroke-width="0.5" />
  <line x1="200" y1="188" x2="200" y2="192" stroke="#000080" stroke-width="0.5" />
  <line x1="500" y1="188" x2="500" y2="192" stroke="#000080" stroke-width="0.5" />
  <text x="350" y="185" text-anchor="middle" font-family="Arial" font-size="8" fill="#000080">60.0 m (196'-10")</text>
  
  <line x1="190" y1="200" x2="190" y2="400" stroke="#000080" stroke-width="0.5" />
  <line x1="188" y1="200" x2="192" y2="200" stroke="#000080" stroke-width="0.5" />
  <line x1="188" y1="400" x2="192" y2="400" stroke="#000080" stroke-width="0.5" />
  <text x="178" y="300" text-anchor="middle" font-family="Arial" font-size="8" fill="#000080" transform="rotate(-90 178,300)">40.0 m (131'-3")</text>
  
  <!-- Internal divisions for labs in West Wing -->
  <line x1="250" y1="200" x2="250" y2="400" stroke="#000080" stroke-width="1" />
  <line x1="300" y1="200" x2="300" y2="400" stroke="#000080" stroke-width="1" />
  <line x1="350" y1="200" x2="350" y2="400" stroke="#000080" stroke-width="1" />
  <line x1="400" y1="200" x2="400" y2="400" stroke="#000080" stroke-width="1" />
  <line x1="450" y1="200" x2="450" y2="400" stroke="#000080" stroke-width="1" />
  
  <!-- Lab Module Width -->
  <line x1="250" y1="195" x2="300" y2="195" stroke="#000080" stroke-width="0.5" />
  <line x1="250" y1="193" x2="250" y2="197" stroke="#000080" stroke-width="0.5" />
  <line x1="300" y1="193" x2="300" y2="197" stroke="#000080" stroke-width="0.5" />
  <text x="275" y="192" text-anchor="middle" font-family="Arial" font-size="6" fill="#000080">10.0 m</text>
  
  <line x1="200" y1="300" x2="500" y2="300" stroke="#000080" stroke-width="1" />
  <text x="350" y="320" text-anchor="middle" font-family="Arial" font-size="12" fill="#000080">LABORATORY SPACES</text>
  
  <!-- South Wing (Administrative) -->
  <rect x="300" y="450" width="600" height="250" fill="none" stroke="#000080" stroke-width="2" />
  <text x="600" y="500" text-anchor="middle" font-family="Arial" font-size="16" fill="#000080">ADMINISTRATIVE WING</text>
  
  <!-- Administrative Wing Measurements -->
  <line x1="300" y1="440" x2="900" y2="440" stroke="#000080" stroke-width="0.5" />
  <line x1="300" y1="438" x2="300" y2="442" stroke="#000080" stroke-width="0.5" />
  <line x1="900" y1="438" x2="900" y2="442" stroke="#000080" stroke-width="0.5" />
  <text x="600" y="435" text-anchor="middle" font-family="Arial" font-size="8" fill="#000080">120.0 m (393'-8")</text>
  
  <line x1="290" y1="450" x2="290" y2="700" stroke="#000080" stroke-width="0.5" />
  <line x1="288" y1="450" x2="292" y2="450" stroke="#000080" stroke-width="0.5" />
  <line x1="288" y1="700" x2="292" y2="700" stroke="#000080" stroke-width="0.5" />
  <text x="280" y="575" text-anchor="middle" font-family="Arial" font-size="8" fill="#000080" transform="rotate(-90 280,575)">50.0 m (164'-1")</text>
  
  <!-- Conference Rooms -->
  <rect x="350" y="520" width="200" height="150" fill="none" stroke="#000080" stroke-width="1.5" />
  <text x="450" y="595" text-anchor="middle" font-family="Arial" font-size="14" fill="#000080">CONFERENCE CENTER</text>
  
  <!-- Conference Center Measurements -->
  <line x1="350" y1="515" x2="550" y2="515" stroke="#000080" stroke-width="0.5" />
  <line x1="350" y1="513" x2="350" y2="517" stroke="#000080" stroke-width="0.5" />
  <line x1="550" y1="513" x2="550" y2="517" stroke="#000080" stroke-width="0.5" />
  <text x="450" y="510" text-anchor="middle" font-family="Arial" font-size="8" fill="#000080">40.0 m (131'-3")</text>
  
  <line x1="345" y1="520" x2="345" y2="670" stroke="#000080" stroke-width="0.5" />
  <line x1="343" y1="520" x2="347" y2="520" stroke="#000080" stroke-width="0.5" />
  <line x1="343" y1="670" x2="347" y2="670" stroke="#000080" stroke-width="0.5" />
  <text x="335" y="595" text-anchor="middle" font-family="Arial" font-size="8" fill="#000080" transform="rotate(-90 335,595)">30.0 m (98'-5")</text>
  
  <!-- Office Spaces -->
  <rect x="650" y="520" width="200" height="150" fill="none" stroke="#000080" stroke-width="1.5" />
  <text x="750" y="595" text-anchor="middle" font-family="Arial" font-size="14" fill="#000080">OFFICE SPACES</text>
  
  <!-- Office Spaces Measurements -->
  <line x1="650" y1="515" x2="850" y2="515" stroke="#000080" stroke-width="0.5" />
  <line x1="650" y1="513" x2="650" y2="517" stroke="#000080" stroke-width="0.5" />
  <line x1="850" y1="513" x2="850" y2="517" stroke="#000080" stroke-width="0.5" />
  <text x="750" y="510" text-anchor="middle" font-family="Arial" font-size="8" fill="#000080">40.0 m (131'-3")</text>
  
  <line x1="855" y1="520" x2="855" y2="670" stroke="#000080" stroke-width="0.5" />
  <line x1="853" y1="520" x2="857" y2="520" stroke="#000080" stroke-width="0.5" />
  <line x1="853" y1="670" x2="857" y2="670" stroke="#000080" stroke-width="0.5" />
  <text x="865" y="595" text-anchor="middle" font-family="Arial" font-size="8" fill="#000080" transform="rotate(90 865,595)">30.0 m (98'-5")</text>
  
  <!-- Core Facilities -->
  <rect x="550" y="520" width="100" height="150" fill="none" stroke="#000080" stroke-width="1.5" />
  <text x="600" y="595" text-anchor="middle" font-family="Arial" font-size="12" fill="#000080" transform="rotate(-90 600,595)">CORE FACILITIES</text>
  
  <!-- Core Facilities Measurements -->
  <line x1="550" y1="515" x2="650" y2="515" stroke="#000080" stroke-width="0.5" />
  <line x1="550" y1="513" x2="550" y2="517" stroke="#000080" stroke-width="0.5" />
  <line x1="650" y1="513" x2="650" y2="517" stroke="#000080" stroke-width="0.5" />
  <text x="600" y="510" text-anchor="middle" font-family="Arial" font-size="8" fill="#000080">20.0 m (65'-7")</text>
  
  <!-- Elevators -->
  <rect x="585" y="400" width="30" height="30" fill="none" stroke="#000080" stroke-width="1" />
  <line x1="585" y1="400" x2="615" y2="430" stroke="#000080" stroke-width="1" />
  <line x1="585" y1="430" x2="615" y2="400" stroke="#000080" stroke-width="1" />
  <text x="600" y="390" text-anchor="middle" font-family="Arial" font-size="10" fill="#000080">ELEVATORS</text>
  
  <!-- Elevator Measurements -->
  <line x1="580" y1="400" x2="580" y2="430" stroke="#000080" stroke-width="0.5" />
  <line x1="578" y1="400" x2="582" y2="400" stroke="#000080" stroke-width="0.5" />
  <line x1="578" y1="430" x2="582" y2="430" stroke="#000080" stroke-width="0.5" />
  <text x="575" y="415" text-anchor="middle" font-family="Arial" font-size="6" fill="#000080" transform="rotate(-90 575,415)">6.0 m</text>
  
  <line x1="585" y1="395" x2="615" y2="395" stroke="#000080" stroke-width="0.5" />
  <line x1="585" y1="393" x2="585" y2="397" stroke="#000080" stroke-width="0.5" />
  <line x1="615" y1="393" x2="615" y2="397" stroke="#000080" stroke-width="0.5" />
  <text x="600" y="380" text-anchor="middle" font-family="Arial" font-size="6" fill="#000080">6.0 m</text>
  
  <!-- Stairwells -->
  <!-- Stairwell 1 -->
  <rect x="250" y="430" width="30" height="50" fill="none" stroke="#000080" stroke-width="1" />
  <line x1="250" y1="440" x2="280" y2="440" stroke="#000080" stroke-width="1" />
  <line x1="250" y1="450" x2="280" y2="450" stroke="#000080" stroke-width="1" />
  <line x1="250" y1="460" x2="280" y2="460" stroke="#000080" stroke-width="1" />
  <line x1="250" y1="470" x2="280" y2="470" stroke="#000080" stroke-width="1" />
  <text x="265" y="420" text-anchor="middle" font-family="Arial" font-size="10" fill="#000080">STAIR 1</text>
  
  <!-- Stair 1 Measurements -->
  <line x1="245" y1="430" x2="245" y2="480" stroke="#000080" stroke-width="0.5" />
  <line x1="243" y1="430" x2="247" y2="430" stroke="#000080" stroke-width="0.5" />
  <line x1="243" y1="480" x2="247" y2="480" stroke="#000080" stroke-width="0.5" />
  <text x="240" y="455" text-anchor="middle" font-family="Arial" font-size="6" fill="#000080" transform="rotate(-90 240,455)">10.0 m</text>
  
  <!-- Stairwell 2 -->
  <rect x="920" y="430" width="30" height="50" fill="none" stroke="#000080" stroke-width="1" />
  <line x1="920" y1="440" x2="950" y2="440" stroke="#000080" stroke-width="1" />
  <line x1="920" y1="450" x2="950" y2="450" stroke="#000080" stroke-width="1" />
  <line x1="920" y1="460" x2="950" y2="460" stroke="#000080" stroke-width="1" />
  <line x1="920" y1="470" x2="950" y2="470" stroke="#000080" stroke-width="1" />
  <text x="935" y="420" text-anchor="middle" font-family="Arial" font-size="10" fill="#000080">STAIR 2</text>
  
  <!-- Stair 2 Measurements -->
  <line x1="955" y1="430" x2="955" y2="480" stroke="#000080" stroke-width="0.5" />
  <line x1="953" y1="430" x2="957" y2="430" stroke="#000080" stroke-width="0.5" />
  <line x1="953" y1="480" x2="957" y2="480" stroke="#000080" stroke-width="0.5" />
  <text x="960" y="455" text-anchor="middle" font-family="Arial" font-size="6" fill="#000080" transform="rotate(90 960,455)">10.0 m</text>
  
  <!-- Mechanical Rooms -->
  <rect x="200" y="650" width="100" height="50" fill="none" stroke="#000080" stroke-width="1" />
  <text x="250" y="680" text-anchor="middle" font-family="Arial" font-size="10" fill="#000080">MECHANICAL</text>
  
  <!-- Mechanical Room Measurements -->
  <line x1="195" y1="650" x2="195" y2="700" stroke="#000080" stroke-width="0.5" />
  <line x1="193" y1="650" x2="197" y2="650" stroke="#000080" stroke-width="0.5" />
  <line x1="193" y1="700" x2="197" y2="700" stroke="#000080" stroke-width="0.5" />
  <text x="190" y="675" text-anchor="middle" font-family="Arial" font-size="6" fill="#000080" transform="rotate(-90 190,675)">10.0 m</text>
  
  <line x1="200" y1="645" x2="300" y2="645" stroke="#000080" stroke-width="0.5" />
  <line x1="200" y1="643" x2="200" y2="647" stroke="#000080" stroke-width="0.5" />
  <line x1="300" y1="643" x2="300" y2="647" stroke="#000080" stroke-width="0.5" />
  <text x="250" y="640" text-anchor="middle" font-family="Arial" font-size="6" fill="#000080">20.0 m</text>
  
  <rect x="900" y="650" width="100" height="50" fill="none" stroke="#000080" stroke-width="1" />
  <text x="950" y="680" text-anchor="middle" font-family="Arial" font-size="10" fill="#000080">ELECTRICAL</text>
  
  <!-- Electrical Room Measurements -->
  <line x1="1005" y1="650" x2="1005" y2="700" stroke="#000080" stroke-width="0.5" />
  <line x1="1003" y1="650" x2="1007" y2="650" stroke="#000080" stroke-width="0.5" />
  <line x1="1003" y1="700" x2="1007" y2="700" stroke="#000080" stroke-width="0.5" />
  <text x="1010" y="675" text-anchor="middle" font-family="Arial" font-size="6" fill="#000080" transform="rotate(90 1010,675)">10.0 m</text>
  
  <line x1="900" y1="645" x2="1000" y2="645" stroke="#000080" stroke-width="0.5" />
  <line x1="900" y1="643" x2="900" y2="647" stroke="#000080" stroke-width="0.5" />
  <line x1="1000" y1="643" x2="1000" y2="647" stroke="#000080" stroke-width="0.5" />
  <text x="950" y="640" text-anchor="middle" font-family="Arial" font-size="6" fill="#000080">20.0 m</text>
  
  <!-- Green Roof / Solar Panel Area -->
  <pattern id="greenRoof" patternUnits="userSpaceOnUse" width="20" height="20">
    <rect width="20" height="20" fill="#E6FFE6" />
    <path d="M 0,10 L 20,10 M 10,0 L 10,20" stroke="#99CC99" stroke-width="0.5" />
  </pattern>
  
  <rect x="400" y="200" width="200" height="80" fill="url(#greenRoof)" stroke="#000080" stroke-width="1" />
  <text x="500" y="240" text-anchor="middle" font-family="Arial" font-size="12" fill="#000080">GREEN ROOF / SOLAR PANELS</text>
  
  <!-- Green Roof Measurements -->
  <line x1="400" y1="195" x2="600" y2="195" stroke="#000080" stroke-width="0.5" />
  <line x1="400" y1="193" x2="400" y2="197" stroke="#000080" stroke-width="0.5" />
  <line x1="600" y1="193" x2="600" y2="197" stroke="#000080" stroke-width="0.5" />
  <text x="500" y="190" text-anchor="middle" font-family="Arial" font-size="8" fill="#000080">40.0 m (131'-3")</text>
  
  <line x1="605" y1="200" x2="605" y2="280" stroke="#000080" stroke-width="0.5" />
  <line x1="603" y1="200" x2="607" y2="200" stroke="#000080" stroke-width="0.5" />
  <line x1="603" y1="280" x2="607" y2="280" stroke="#000080" stroke-width="0.5" />
  <text x="612" y="240" text-anchor="middle" font-family="Arial" font-size="8" fill="#000080" transform="rotate(90 612,240)">16.0 m (52'-6")</text>
  
  <!-- Collaborative Spaces -->
  <rect x="400" y="400" width="200" height="50" fill="none" stroke="#000080" stroke-width="1" />
  <text x="500" y="430" text-anchor="middle" font-family="Arial" font-size="12" fill="#000080">COLLABORATIVE SPACE</text>
  
  <!-- Collaborative Space Measurements -->
  <line x1="400" y1="395" x2="600" y2="395" stroke="#000080" stroke-width="0.5" />
  <line x1="400" y1="393" x2="400" y2="397" stroke="#000080" stroke-width="0.5" />
  <line x1="600" y1="393" x2="600" y2="397" stroke="#000080" stroke-width="0.5" />
  <text x="500" y="390" text-anchor="middle" font-family="Arial" font-size="8" fill="#000080">40.0 m (131'-3")</text>
  
  <line x1="395" y1="400" x2="395" y2="450" stroke="#000080" stroke-width="0.5" />
  <line x1="393" y1="400" x2="397" y2="400" stroke="#000080" stroke-width="0.5" />
  <line x1="393" y1="450" x2="397" y2="450" stroke="#000080" stroke-width="0.5" />
  <text x="385" y="425" text-anchor="middle" font-family="Arial" font-size="8" fill="#000080" transform="rotate(-90 385,425)">10.0 m (32'-10")</text>
  
  <!-- Legend -->
  <rect x="50" y="50" width="180" height="90" fill="#f0f8ff" stroke="#000080" stroke-width="1" />
  <text x="140" y="70" text-anchor="middle" font-family="Arial" font-weight="bold" font-size="12" fill="#000080">LEGEND</text>
  
  <line x1="60" y1="85" x2="90" y2="85" stroke="#000080" stroke-width="2" />
  <text x="140" y="90" font-family="Arial" font-size="10" fill="#000080">Main Walls</text>
  
  <line x1="60" y1="105" x2="90" y2="105" stroke="#000080" stroke-width="1" />
  <text x="140" y="110" font-family="Arial" font-size="10" fill="#000080">Interior Walls</text>
  
  <rect x="60" y="120" width="30" height="10" fill="url(#greenRoof)" stroke="#000080" stroke-width="0.5" />
  <text x="145" y="130" font-family="Arial" font-size="10" fill="#000080">Green/Sustainable Areas</text>
  
  <!-- Title Block -->
  <rect x="950" y="50" width="200" height="90" fill="#f0f8ff" stroke="#000080" stroke-width="1" />
  <text x="1050" y="70" text-anchor="middle" font-family="Arial" font-weight="bold" font-size="14" fill="#000080">FEDERAL RESEARCH AND</text>
  <text x="1050" y="90" text-anchor="middle" font-family="Arial" font-weight="bold" font-size="14" fill="#000080">INNOVATION CENTER</text>
  <text x="1050" y="110" text-anchor="middle" font-family="Arial" font-size="12" fill="#000080">MIDWEST HUB</text>
  <text x="1050" y="130" text-anchor="middle" font-family="Arial" font-size="10" fill="#000080">ZAMPINO CONSTRUCTION GROUP</text>
  
  <!-- Building Specifications Box -->
  <rect x="950" y="150" width="200" height="100" fill="#f0f8ff" stroke="#000080" stroke-width="1" />
  <text x="1050" y="165" text-anchor="middle" font-family="Arial" font-weight="bold" font-size="10" fill="#000080">BUILDING SPECIFICATIONS</text>
  <text x="960" y="180" font-family="Arial" font-size="8" fill="#000080">GROSS FLOOR AREA: 425,000 SQ FT (39,483 SQ M)</text>
  <text x="960" y="195" font-family="Arial" font-size="8" fill="#000080">BUILDING HEIGHT: 82 FT (25 M)</text>
  <text x="960" y="210" font-family="Arial" font-size="8" fill="#000080">NUMBER OF FLOORS: 4</text>
  <text x="960" y="225" font-family="Arial" font-size="8" fill="#000080">LEED CERTIFICATION: PLATINUM</text>
  <text x="960" y="240" font-family="Arial" font-size="8" fill="#000080">SECURITY LEVEL: FEDERAL LEVEL IV</text>
  
  <!-- Scale Information -->
  <line x1="50" y1="870" x2="250" y2="870" stroke="#000080" stroke-width="1" />
  <line x1="50" y1="865" x2="50" y2="875" stroke="#000080" stroke-width="1" />
  <line x1="250" y1="865" x2="250" y2="875" stroke="#000080" stroke-width="1" />
  <text x="150" y="890" text-anchor="middle" font-family="Arial" font-size="10" fill="#000080">SCALE: 1:200 | 0 10 20 50 METERS</text>
  
  <!-- Special Features Labels -->
  <!-- Security Features -->
  <text x="850" y="750" text-anchor="middle" font-family="Arial" font-size="12" fill="#000080">SECURITY CONTROL CENTER</text>
  <rect x="800" y="700" width="100" height="50" fill="none" stroke="#000080" stroke-width="1" />
  
  <!-- Security Center Measurements -->
  <line x1="795" y1="700" x2="795" y2="750" stroke="#000080" stroke-width="0.5" />
  <line x1="793" y1="700" x2="797" y2="700" stroke="#000080" stroke-width="0.5" />
  <line x1="793" y1="750" x2="797" y2="750" stroke="#000080" stroke-width="0.5" />
  <text x="790" y="725" text-anchor="middle" font-family="Arial" font-size="6" fill="#000080" transform="rotate(-90 790,725)">10.0 m</text>
  
  <line x1="800" y1="695" x2="900" y2="695" stroke="#000080" stroke-width="0.5" />
  <line x1="800" y1="693" x2="800" y2="697" stroke="#000080" stroke-width="0.5" />
  <line x1="900" y1="693" x2="900" y2="697" stroke="#000080" stroke-width="0.5" />
  <text x="850" y="690" text-anchor="middle" font-family="Arial" font-size="6" fill="#000080">20.0 m</text>
  
  <!-- LEED Elements -->
  <text x="300" y="750" text-anchor="middle" font-family="Arial" font-size="12" fill="#000080">WATER RECLAMATION</text>
  <rect x="250" y="700" width="100" height="50" fill="none" stroke="#000080" stroke-width="1" />
  
  <!-- Water Reclamation Measurements -->
  <line x1="245" y1="700" x2="245" y2="750" stroke="#000080" stroke-width="0.5" />
  <line x1="243" y1="700" x2="247" y2="700" stroke="#000080" stroke-width="0.5" />
  <line x1="243" y1="750" x2="247" y2="750" stroke="#000080" stroke-width="0.5" />
  <text x="240" y="725" text-anchor="middle" font-family="Arial" font-size="6" fill="#000080" transform="rotate(-90 240,725)">10.0 m</text>
  
  <line x1="250" y1="695" x2="350" y2="695" stroke="#000080" stroke-width="0.5" />
  <line x1="250" y1="693" x2="250" y2="697" stroke="#000080" stroke-width="0.5" />
  <line x1="350" y1="693" x2="350" y2="697" stroke="#000080" stroke-width="0.5" />
  <text x="300" y="690" text-anchor="middle" font-family="Arial" font-size="6" fill="#000080">20.0 m</text>
  
  <!-- North Arrow -->
  <line x1="1080" y1="170" x2="1080" y2="220" stroke="#000080" stroke-width="1" />
  <polygon points="1080,170 1070,190 1090,190" fill="#000080" stroke="#000080" stroke-width="1" />
  <text x="1080" y="240" text-anchor="middle" font-family="Arial" font-size="12" fill="#000080">N</text>
  
  <!-- Floor Indicator -->
  <text x="750" y="70" text-anchor="middle" font-family="Arial" font-weight="bold" font-size="14" fill="#000080">FLOOR PLAN - GROUND LEVEL</text>
  
  <!-- Drawing Number -->
  <text x="550" y="890" text-anchor="middle" font-family="Arial" font-size="12" fill="#000080">DRAWING NO: A-101</text>
  <text x="730" y="890" text-anchor="middle" font-family="Arial" font-size="12" fill="#000080">DATE: MAY 2025</text>
  
  <!-- Building Total Dimensions Callout -->
  <text x="600" y="110" text-anchor="middle" font-family="Arial" font-weight="bold" font-size="10" fill="#000080">TOTAL BUILDING FOOTPRINT: 108,000 SQ FT (10,030 SQ M)</text>
</svg>